<?xml version='1.0' encoding='utf-8'?>
<svg xmlns="http://www.w3.org/2000/svg" width="346.795mm" height="69.7652mm" version="1.1" style="shape-rendering:geometricPrecision; text-rendering:geometricPrecision; image-rendering:optimizeQuality; fill-rule:evenodd; clip-rule:evenodd" viewBox="0 0 34679 6977"> <defs> <style type="text/css">  .fil0 {fill:#193D5E}  </style> </defs> <g id="Layer_x0020_1"> <metadata id="CorelCorpID_0Corel-Layer"/> <polygon class="fil0" points="5881,4938 4205,4938 2528,4938 851,4938 1690,3486 2528,2034 3366,582 4205,2034 5043,3486 "/> <polygon class="fil0" points="11471,2034 10632,3486 11471,4938 9794,4938 8955,6391 8117,4938 6440,4938 7279,3486 6440,2034 8117,2034 8955,582 9794,2034 "/> <polygon class="fil0" points="12026,2034 12306,2518 "/> <polygon class="fil0" points="12025,3004 12306,2518 "/> <path class="fil0" d="M17062 4944l-280 -484 281 -486 -561 0 -280 -484 280 -484 561 0 -281 -486 280 -484 -559 0 -281 -486 -280 486 -559 0 -280 -484 281 -486 -561 0 -279 -484 -280 484 -561 0 281 486 -280 484 -559 0 -280 -486 -281 486 -559 0c0,0 1,-2 1,-2l280 484 -281 486 561 0 280 484 -280 -484 280 484c0,1 1,-2 1,-1l-280 484 -561 0 281 485 -280 484 559 0 281 486 280 -486 559 0 280 484 -281 486 561 0 280 484 279 -484 561 0 -280 -486 279 -484 559 0 280 486 281 -486 559 0c1,0 -2,5 -2,4z"/> <path class="fil0" d="M17618 4942l186 0 93 161 93 -161 186 0 94 161 -94 161 187 0 93 162c0,0 2,0 2,-1l93 -161 186 0 -93 -161 93 -162 187 0 93 162 93 -162 186 0 94 162 -94 161 187 0 93 161 -93 162 -187 0 94 161 -94 161 187 0 93 162 93 -162 186 0 93 162 -93 161 187 0 93 161 93 -161 186 0 -93 -161 93 -162 186 0 94 162 93 -162 186 0 -93 -161 93 -161 -186 0 -93 -162 93 -161 186 0 -93 -161 93 -162 186 0 94 162 93 -162 186 0 93 162 -93 161 186 0 93 161 94 -161 186 0 -93 -161 93 -162 186 0 93 162 94 -162 186 0c1,0 -1,-1 -1,-2l-93 -161 93 -161 -186 0 -94 -162 94 -161 186 0 -93 -161 93 -162 -186 0 -94 -161 -93 161 -186 0 -93 -161 93 -161 -186 0 -94 -162 94 -161 186 0 -93 -161 93 -162 186 0 93 162 94 -162 186 0 -93 -161 93 -161 -186 0 -94 -162 94 -161 186 0 -93 -161 93 -162 -187 0 -93 -161 -93 161 -186 0 -93 -161 93 -161 -186 0 -94 -162 -93 162 -186 0 93 161 -93 161 -186 0 -93 -161 -94 161 -186 0 -93 -161 93 -161 -186 0 -93 -162 93 -161 186 0 -93 -161 93 -162 -186 0 -93 -161 -94 161 -186 0 -93 -161 93 -161 -186 0 -93 -162 -93 162 -187 0 93 161 -93 161 -186 0 -93 -161 -93 161 -187 0 93 162 -93 161 187 0 93 161 -93 162 -187 0 93 161 -93 161 -186 0 -93 -161 -93 161 -187 0 -93 -161 93 -161 -186 0 -93 -162 -93 162 -187 0 94 161 -94 161 -186 0 -93 -161 -93 161 -186 0 93 162 -93 161 186 0 93 161 -93 162 -186 0 93 161 -93 161 186 0 93 162 93 -162 186 0 94 162 -94 161 187 0 93 161 -93 162 -187 0 94 161 -94 161 -186 0 -93 -161 -93 161 -186 0 93 162 -93 161 186 0 93 161 -93 162 -187 0 94 161 -94 161c0,1 -1,3 0,3z"/> <path class="fil0" d="M26561 2035l-31 -54 31 -53 -62 0 -31 -54 31 -54 62 0 -31 -54 31 -53 -62 0 -31 -54 -32 54 -62 0 -31 -54 31 -54 -62 0 -31 -54 31 -54 62 0 -31 -53 31 -54 62 0 32 54 31 -54 62 0 -31 -54 31 -54 -62 0 -31 -53 31 -54 62 0 -31 -54 31 -54 -62 0 -31 -54 -32 54 -62 0 -31 -54 31 -53 -62 0 -31 -54 -31 54 -62 0 31 53 -31 54 -62 0 -31 -54 -31 54 -62 0 -31 -54 31 -53 -62 0 -31 -54 31 -54 62 0 -31 -54 31 -53 -62 0 -31 -54 -31 54 -63 0 -31 -54 31 -54 -62 0 -31 -54 -31 54 -62 0 31 54 -31 54 -62 0 -31 -54 -31 54 -62 0 31 53 -31 54 62 0 31 54 -31 54 -62 0 31 53 -31 54 -62 0 -31 -54 -31 54 -62 0 -32 -54 32 -53 -63 0 -31 -54 -31 54 -62 0 31 53 -31 54 -62 0 -31 -54 -31 54 -62 0 31 54 -31 54 62 0 31 54 -31 53 -62 0 31 54 -31 54 62 0 31 54 31 -54 62 0 31 54 -31 53 62 0 31 54 -31 54 -62 0 31 54 -31 54 -62 0 -31 -54 -31 54 -62 0 31 53 -31 54 62 0 31 54 -31 54 -62 0 31 54 -31 53c0,1 0,1 -1,1l-62 0 -31 -54 -31 54 -62 0 -31 -54 31 -53 -62 0 -31 -54 -31 54 -62 0 31 53 -31 54 -62 0 -31 -54 -31 54 -63 0 -31 -54 31 -53 -62 0 -31 -54 31 -54 62 0 -31 -54 31 -54 -62 0 -31 -53 -31 53 -62 0 -31 -53 31 -54 -62 0 -31 -54 -31 54 -62 0 31 54 -31 53 -62 1 -31 -54 -31 54 -62 0 31 53 -31 54 62 0 31 54 -31 54 -62 0 31 53 -31 54 -63 0 -31 -54 -31 54 -62 0 -31 -54 31 -53 -62 0 -31 -54 -31 54 -62 0 31 53 -31 54 -62 0 -31 -54 -31 54 -62 0 31 54 -31 54 62 0 31 54 -31 53 -62 0 31 54 -31 54 62 0 31 54 31 -54 62 0 31 54 -31 53 62 0 31 54 -31 54 -62 0 31 54 -31 54 -62 0 -31 -54 -31 54 -62 0 31 53 -31 54 62 0 31 54 -31 54 -62 0 31 53 -31 54 62 0 31 54 31 -54 62 0 31 54 -31 54 62 0 31 54 31 -54 62 0 -31 -54 31 -54 62 0 31 54 31 -54 63 0 31 54 -31 54 62 0 31 54 -31 53 -62 0 31 54 -31 54 62 0 31 54 31 -54 62 0 31 54 -31 54 62 0 31 53c0,1 1,1 0,1l-31 54 -62 0 31 54 -31 54 -62 0 -31 -54 -31 54 -62 0 31 53 -31 54 62 0 31 54 -31 54 -62 0 31 53 -31 54 -62 0 -31 -53 -31 53 -62 0 -31 -53 31 -54 -62 0 -31 -54 -31 54 -63 0 31 54 -31 53 -62 0 -31 -53 -31 53 -62 0 31 54 -31 54 62 0 31 54 -31 53 -62 0 31 54 -31 54 62 0 31 54 31 -54 62 0 31 54 -31 54 63 0 31 53 -31 54 -63 0 31 54 -31 54 -62 0 -31 -54 -31 54 -62 0 31 53 -31 54 62 0 31 54 -31 54 -62 0 31 54 -31 53 62 0 31 54 31 -54 62 0 31 54 -31 54 63 0 31 54 31 -54 62 0 -31 -54 31 -54 62 0 31 54 31 -54 62 0 31 54 -31 54 62 0 31 54 -31 53 -62 0 31 54 -31 54 62 0 31 54 31 -54 62 0 31 54 -31 54 62 0 32 53 31 -53 62 0 -31 -54 31 -54 62 0 31 54 31 -54 62 0 -31 -54 31 -54 -62 0 -31 -53 31 -54 62 0 -31 -54 31 -54 62 0 31 54 31 -54 62 0 31 54 -31 54 62 0 31 54 31 -54 63 0 -31 -54 31 -54 62 0 31 54 31 -54 62 0c0,0 1,0 1,0l31 54 -31 54 62 0 31 54 -31 53 -62 0 31 54 -31 54 62 0 31 54 31 -54 62 0 31 54 -31 54 62 0 31 53 -31 54 -62 0 31 54 -31 54 -62 0 -31 -54 -31 54 -62 0 31 54 -31 53 62 0 31 54 -31 54 -62 0 31 54 -31 53 62 0 31 54 31 -54 62 0 31 54 -31 54 62 0 31 54 31 -54 63 0 -31 -54 31 -54 62 0 31 54 31 -54 62 0 31 54 -31 54 62 0 31 54 -31 54 -62 0 31 53 -31 54 62 0 31 54 31 -54 62 0 31 54 -31 54 62 0 31 53 31 -53 62 0 -31 -54 31 -54 63 0 31 54 31 -54 62 0 -31 -54 31 -53 -62 0 -31 -54 31 -54 62 0 -31 -54 31 -54 62 0 31 54 31 -54 62 0 31 54 -31 54 62 0 31 54 31 -54 62 0 -31 -54 31 -54 62 0 32 54 31 -54 62 0 -31 -53 31 -54 -62 0 -31 -54 31 -54 62 0 -31 -53 31 -54 -62 0 -31 -54 -32 54 -62 0 -31 -54 31 -54 -62 0 -31 -54 31 -53 62 0 -31 -54 31 -54 63 0 31 54 31 -54 62 0 -31 -54 31 -53 -62 0 -31 -54 31 -54 62 0 -31 -54 31 -54c0,0 0,-1 0,-1l62 0 31 54 31 -54 63 0 31 54 -31 54 62 0 31 54 31 -54 62 0 -31 -54 31 -54 62 0 31 54 31 -54 62 0 31 54 -31 54 62 0 31 54 -31 54 -62 0 31 53 -31 54 62 0 31 54 31 -54 62 0 32 54 -32 54 63 0 31 53 31 -53 62 0 -31 -54 31 -54 62 0 31 54 31 -54 62 0 -31 -54 31 -53 -62 0 -31 -54 31 -54 62 0 -31 -54 31 -54 62 0 31 54 31 -54 62 0 31 54 -31 54 62 0 32 54 31 -54 62 0 -31 -54 31 -54 62 0 31 54 31 -54 62 0 -31 -53 31 -54 -62 0 -31 -54 31 -54 62 0 -31 -53 31 -54 -62 0 -31 -54 -31 54 -62 0 -31 -54 31 -54 -62 0 -31 -54 31 -53 62 0 -31 -54 31 -54 62 0 31 54 31 -54 62 0 -31 -54 31 -53 -62 0 -31 -54 31 -54 62 0 -31 -54 31 -54 -62 0 -31 -53 -31 53 -62 0 -31 -53 31 -54 -62 0 -31 -54 -31 54 -63 0 31 54 -31 53 -62 0 -31 -53 -31 53 -62 0 -31 -53 31 -54 -62 0 -31 -54 31 -54 62 0 -31 -54 31 -53 -62 0 -31 -54 -31 54 -62 0 -31 -54 31 -54 -62 0 -31 -54c-1,0 -1,0 -1,-1l31 -53 62 0 -31 -54 31 -54 62 0 31 54 31 -54 63 0 -31 -54 31 -53 -63 0 -31 -54 31 -54 63 0 -31 -54 31 -54 62 0 31 54 31 -54 62 0 31 54 -31 54 62 0 31 54 31 -54 62 0 -31 -54 31 -54 62 0 31 54 31 -54 62 0 -31 -53 31 -54 -62 0 -31 -54 31 -54 62 0 -31 -54 31 -53 -62 0 -31 -54 -31 54 -62 0 -31 -54 31 -54 -62 0 -31 -54 31 -53 62 0 -31 -54 31 -54 62 0 31 54 31 -54 62 0 -31 -54 31 -54 -62 0 -31 -53 31 -54 62 0 -31 -54 31 -54 -62 0 -31 -53 -31 53 -62 0 -31 -53 31 -54 -62 0 -31 -54 -31 54 -62 0 31 54 -31 53 -62 0 -31 -53 -31 53 -62 0 -31 -53 31 -54 -63 0 -31 -54 31 -54 63 0 -31 -54 31 -53 -63 0 -31 -54 -31 54 -62 0 -31 -54 31 -54 -62 0 -31 -54 -31 54 -62 0 31 54 -31 54 -62 0 -31 -54 -31 54 -62 0 31 53 -31 54 62 0 31 54 -31 54 -62 0 31 54 -31 53 -62 0 -31 -53 -32 53 -62 0 -31 -54 31 -53 -62 0 -31 -54 -31 54 -62 0 31 53 -31 54 -62 0 -31 -54 -31 54 -62 0c-1,0 -1,1 -1,0z"/> <path class="fil0" d="M30473 2035l11 -18 -11 -18 21 0 10 -18 -10 -17 -21 0 11 -18 -11 -18 21 0 10 -18 11 18 20 0 11 -18 -11 -18 21 0 11 -18 -11 -18 -21 0 11 -18 -11 -18 -20 0 -11 18 -10 -18 -21 0 11 -18 -11 -18 21 0 10 -18 -10 -18 -21 0 11 -17 -11 -18 21 0 10 -18 11 18 20 0 11 -18 -11 -18 21 0 11 -18 10 18 21 0 -11 18 11 18 20 0 11 -18 10 18 21 0 10 -18 -10 -18 20 0 11 -18 -11 -18 -20 0 10 -18 -10 -18 20 0 11 -18 10 18 21 0 10 -18 -10 -18 20 0 11 -18 -11 -18 -20 0 10 -18 -10 -18 -21 0 -10 18 -11 -18 -20 0 10 -17 -10 -18 20 0 11 -18 -11 -18 -20 0 10 -18 -10 -18 -21 0 -10 18 -11 -18 -20 0 -11 18 11 18 -21 0 -10 18 -11 -18 -21 0 11 -18 -11 -18 -20 0 -11 18 -10 -18 -21 0 11 -18 -11 -18 21 0 10 -18 -10 -18 -21 0 11 -18 -11 -18 21 0 10 -18 11 18 20 0 11 -18 -11 -18 21 0 11 -17 -11 -18 -21 0 11 -18 -11 -18 -20 0 -11 18 -10 -18 -21 0 11 -18 -11 -18 21 0 10 -18 -10 -18 -21 0 11 -18 -11 -18 21 0 10 -18 11 18 20 0 11 -18 -11 -18 21 0 11 -18 10 18 21 0 -11 18 11 18 20 0 11 -18 10 18 21 0 10 -18 -10 -18 20 0 11 -18 -11 -17 -20 0 10 -18 -10 -18 20 0 11 -18 10 18 21 0 10 -18 -10 -18 20 0 11 -18 10 18 21 0 -10 18 10 18 21 0 10 -18 10 18 21 0 -10 18 10 17 -21 1 -10 17 10 18 21 0 -10 18 10 18 21 0 10 -18 10 18 21 0 10 -18 -10 -18 21 0 10 -18 10 18 21 0 -10 18 10 18 21 0 10 -18 11 18 20 0c0,0 0,0 0,0l11 -18 -11 -18 21 0 11 -18 -11 -18 -21 0 11 -18 -11 -18 21 0 11 -18 10 18 21 0 10 -18 -10 -18 20 0 11 -17 -11 -18 -20 0 10 -18 -10 -18 -21 0 -10 18 -11 -18 -21 0 11 -18 -11 -18 21 0 11 -18 -11 -18 -21 0 11 -18 -11 -18 21 0 11 -18 10 18 21 0 10 -18 -10 -18 20 0 11 -18 10 18 21 0 -11 18 11 18 20 0 11 -18 10 18 21 0 10 -18 -10 -18 20 0 11 -18 -11 -17 -20 0 10 -18 -10 -18 20 0 11 -18 10 18 21 0 10 -18 -10 -18 21 0 10 -18 10 18 21 0 -10 18 10 18 21 0 10 -18 10 18 21 0 -10 18 10 18 -21 0 -10 17 10 18 21 0 -10 18 10 18 21 0 10 -18 10 18 21 0 11 -18 -11 -18 21 0 10 -18 11 18 20 0 -10 18 10 18 21 0 10 -18 11 18 20 0 -10 18 10 18 -20 0 -11 18 11 18 20 0 -10 18 10 18 -20 0 -11 18 -10 -18 -21 0 -10 18 10 18 -20 0 -11 18 11 17 20 0 -10 18 10 18 21 0 10 -18 11 18 20 0 -10 18 10 18 -20 0 -11 18 11 18 20 0 -10 18 10 18c0,0 1,0 1,0l20 0 11 -18 10 18 21 0 10 -18 -10 -18 21 0 10 -18 10 18 21 0 -10 18 10 18 21 0 10 -18 10 18 21 0 10 -18 -10 -18 21 0 10 -18 -10 -18 -21 0 10 -18 -10 -18 21 0 10 -18 10 18 21 0 11 -18 -11 -18 21 0 10 -17 11 17 20 0 -10 18 10 18 21 0 10 -18 11 18 20 0 -10 18 10 18 -20 0 -11 18 11 18 20 0 -10 18 10 18 21 0 10 -18 11 18 20 0 11 -18 -11 -18 21 0 11 -18 10 18 21 0 -11 18 11 18 20 0 11 -18 10 18 21 0 -11 18 11 18 -21 0 -10 18 10 18 21 0 -11 18 11 17 -21 0 -10 18 -11 -18 -20 0 -11 18 11 18 -21 0 -10 18 10 18 21 0 -11 18 11 18 20 0 11 -18 10 18 21 0 -11 18 11 18 -21 0 -10 18 10 18 21 0 -11 18 11 18 -21 0 -10 18 -11 -18 -20 0 -11 18 11 17 -21 0 -11 18 -10 -18 -21 0 11 -17 -11 -18 -20 0 -11 18 -10 -18 -21 0 -10 18 10 17 -20 0 -11 18 11 18 20 0 -10 18 10 18 -20 0 -11 18 -10 -18 -21 0 -10 18 10 18 -20 0 -11 18 11 18 20 0 -10 18 10 18 21 0 10 -18 11 18 20 0 -10 18 10 18 -20 0 -11 18 11 17 20 0 -10 18 10 18 21 0 10 -18 11 18 20 0 11 -18 -11 -18 21 0 10 -17 11 17 21 0 -11 18 11 18 20 0 11 -18 10 18 21 0 -11 18 11 18 -21 0 -10 18 10 18 21 0 -11 18 11 18 -21 0 -10 18 -11 -18 -20 0 -11 18 11 18 -21 0 -11 18 11 18 21 0 -11 17 11 18 20 0 11 -18 10 18 21 0 -11 18 11 18 -21 0 -10 18 10 18 21 0 -11 18 11 18c0,0 0,0 0,0l21 0 10 -18 11 18 20 0 11 -18 -11 -17 21 0 10 -18 11 18 21 0 -11 17 11 18 20 0 11 -18 10 18 21 0 10 -18 -10 -17 20 0 11 -18 -11 -18 -20 0 10 -18 -10 -18 20 0 11 -18 10 18 21 0 10 -18 -10 -18 20 0 11 -18 10 18 21 0 -11 18 11 18 21 0 10 -18 10 18 21 0 -10 18 10 18 -21 0 -10 18 10 18 21 0 -10 17 10 18 21 0 10 -18 10 18 21 0 10 -18 -10 -17 21 0 10 -18 10 18 21 0 -10 17 10 18 21 0 10 -18 11 18 20 0 11 -18 -11 -17 21 0 10 -18 -10 -18 -21 0 11 -18 -11 -18 21 0 10 -18 11 18 20 0 11 -18 -11 -18 21 0 10 -18 -10 -18 -21 0 11 -18 -11 -18 -20 0 -11 18 -10 -18 -21 0 11 -18 -11 -18 21 0 10 -18 -10 -17 -21 0 11 -18 -11 -18 21 0 10 -18 11 18 20 0 11 -18 -11 -18 21 0 10 -18 11 18 20 0 -10 18 10 18 21 0 10 -18 11 18 21 0 10 -18 -10 -18 20 0 11 -18 -11 -18 -20 0 10 -18 -10 -18 20 0 11 -18 10 18 21 0 10 -18 -10 -18 20 0 11 -18 10 18 21 0 -11 18 11 18 20 0 11 -18 10 18 21 0 -11 18 11 18 -21 0 -10 18 10 18 21 0 -11 18 11 18 21 0 10 -18 10 18 21 0 10 -18 -10 -18 21 0 10 -18 10 18 21 0 -10 18 10 18 21 0 10 -18 10 18 21 0 -10 18 10 18 -21 0 -10 17 10 18 21 0 -10 18 10 18 -21 0 -10 18 -10 -18 -21 0 -10 18 10 18 -21 0 -10 18 10 18 21 0 -10 18 10 18 21 0 10 -18 10 18 21 0 -10 18 10 18 -21 0 -10 18 10 18 21 0 -10 17 10 18c0,0 0,1 0,1l21 0 10 -18 11 18 20 0 11 -18 -11 -18 21 0 10 -18 11 18 21 0 -11 18 11 18 20 0 11 -18 10 18 21 0 10 -18 -10 -18 20 0 11 -18 -11 -18 -20 0 10 -18 -10 -18 20 0 11 -18 10 18 21 0 10 -18 -10 -18 20 0 11 -18 10 18 21 0 -11 18 11 18 21 0 10 -18 10 18 21 0 -10 18 10 18 -21 0 -10 18 10 18 21 0 -10 18 10 18 21 0 10 -18 10 18 21 0 10 -18 -10 -18 21 0 10 -18 10 18 21 0 -10 18 10 18 21 0 10 -18 11 18 20 0 -10 18 10 18 -20 0 -11 17 11 18 20 0 -10 18 10 18 -20 0 -11 18 -10 -18 -21 0 -10 18 10 18 -21 0 -10 18 10 18 21 0 -10 18 10 18 21 0 10 -18 11 18 20 0 -10 18 10 18 -20 0 -11 18 11 18 20 0 -10 17 10 18 -20 0 -11 18 -10 -18 -21 0 -10 18 10 18 -21 0 -10 18 -10 -18 -21 0 10 -18 -10 -18 -21 0 -10 18 -10 -18 -21 0 -10 18 10 18 -21 0 -10 18 10 18 21 0 -10 18 10 18 -21 0 -10 18 -10 -18 -21 0 -11 18 11 18 -21 0 -10 18c0,0 0,0 0,0l10 18 21 0 -11 18 11 18 20 0 11 -18 10 18 21 0 -11 18 11 18 -21 0 -10 18 10 18 21 0 -11 17 11 18 20 0 11 -18 10 18 21 0 10 -18 -10 -17 21 0 10 -18 10 18 21 0 -10 17 10 18 21 0 10 -18 10 18 21 0 -10 18 10 18 -21 0 -10 18 10 18 21 0 -10 18 10 18 -21 0 -10 18 -10 -18 -21 0 -10 18 10 18 -21 0 -10 18 10 18 21 0 -10 18 10 18 21 0 10 -18 10 18 21 0 -10 17 10 18 -21 0 -10 18 10 18 21 0 -10 18 10 18 -21 0 -10 18 -10 -18 -21 0 -10 18 10 18 -21 0 -10 18 -10 -18 -21 0 10 -18 -10 -18 -21 0 -10 18 -11 -18 -20 0 -11 18 11 18 -21 0 -10 18 10 18 21 0 -11 18 11 18 -21 0 -10 18 -11 -18 -20 0 -11 18 11 17 -21 0 -10 18 -11 -18 -20 0 10 -17 -10 -18 -21 0 -10 18 -11 -18 -21 0 11 -18 -11 -18 21 0 11 -18 -11 -18 -21 0 11 -18 -11 -18 -20 0 -11 18 -10 -18 -21 0 -10 18 10 18 -20 0 -11 18 -10 -18 -21 0 11 -18 -11 -18 -20 0 -11 18 -10 -18 -21 0 -10 18 10 18 -21 0 -10 18 10 18 21 0 -10 18 10 18 -21 0 -10 18 -10 -18 -21 0 -10 18 10 17 -21 0 -10 18 10 18 21 0 -10 18 10 18 21 0 10 -18 10 18 21 0 -10 18 10 18 -21 0 -10 18 10 18 21 0 -10 18 10 18 -21 0 -10 18 -10 -18 -21 0 -10 18 10 18 -21 0 -10 18 -10 -18 -21 0 10 -18 -10 -18 -21 0 -10 18 -10 -18 -21 0 -11 18 11 18 -21 0 -10 18 10 17 21 0 -11 18 11 18 -21 0 -10 18 -11 -18 -20 0 -11 18 11 18 -21 0 -10 18c0,0 0,1 0,1l10 18 21 0 -11 18 11 17 21 0 10 -17 10 17 21 0 -10 18 10 18 -21 0 -10 18 10 18 21 0 -10 18 10 18 21 0 10 -18 10 18 21 0 10 -18 -10 -18 21 0 10 -18 10 18 21 0 -10 18 10 18 21 0 10 -18 11 18 20 0 -10 18 10 18 -20 0 -11 18 11 18 20 0 -10 18 10 18 -20 0 -11 18 -10 -18 -21 0 -10 18 10 17 -21 0 -10 18 10 18 21 0 -10 18 10 18 21 0 10 -18 11 18 20 0 -10 18 10 18 -20 0 -11 18 11 18 20 0 -10 18 10 18 21 0 10 -18 11 18 20 0 11 -18 -11 -18 21 0 10 -18 11 18 20 0 -10 18 10 18 21 0 11 -18 10 18 21 0 10 -18 -10 -18 20 0 11 -18 -11 -18 -20 0 10 -18 -10 -18 20 0 11 -18 10 18 21 0 10 -18 -10 -18 20 0 11 -18 10 18 21 0 -11 18 11 18 20 0 11 -18 10 18 21 0 -10 18 10 18 -21 0 -10 18 10 18 21 0 -10 18 10 18 21 0 10 -18 10 18 21 0 10 -18 -10 -18 21 0 10 -18 10 18 21 0 -10 18 10 18 21 0 10 -18 10 18 21 0 -10 18 10 18 -21 0 -10 17 10 18 21 0 -10 18 10 18 -21 0 -10 18 -10 -18 -21 0 -10 18 10 18 -21 0 -10 18 10 18 21 0 -10 18 10 18 21 0 10 -18 10 18 21 0 -10 18 10 18 -21 0 -10 18 10 18 21 0 -10 17 10 18 -21 0 -10 18 -10 -18 -21 0 -10 18 10 18 -21 0 -10 18 -10 -18 -21 0 10 -18 -10 -18 -21 0 -10 18 -10 -18 -21 0 -10 18 10 18 -21 0 -10 18 10 18 21 0 -10 18 10 18 -21 0 -10 18 -11 -18 -20 0 -11 18 11 18 -21 0 -10 18c0,0 -1,0 0,0l10 18 21 0 -11 18 11 18 20 0 11 -18 10 18 21 0 -11 18 11 18 -21 0 -10 18 10 18 21 0 -11 17 11 18 20 0 11 -18 10 18 21 0 10 -18 -10 -17 21 0 10 -18 10 18 21 0 -10 17 10 18 21 0 10 -18 10 18 21 0 -10 18 10 18 -21 0 -10 18 10 18 21 0 -10 18 10 18 -21 0 -10 18 -10 -18 -21 0 -10 18 10 18 -21 0 -10 18 10 18 21 0 -10 18 10 18 21 0 10 -18 10 18 21 0 -10 17 10 18 -21 0 -10 18 10 18 21 0 -10 18 10 18 -21 0 -10 18 -10 -18 -21 0 -10 18 10 18 -21 0 -10 18 -11 -18 -20 0 10 -18 -10 -18 -21 0 -10 18 -11 -18 -20 0 -11 18 11 18 -21 0 -10 18 10 18 21 0 -11 18 11 18 -21 0 -10 18 -11 -18 -20 0 -11 18 11 17 -21 0 -10 18 -11 -18 -21 0 11 -17 -11 -18 -20 0 -11 18 -10 -18 -21 0 11 -18 -11 -18 21 0 10 -18 -10 -18 -21 0 11 -18 -11 -18 -20 0 -11 18 -10 -18 -21 0 -10 18 10 18 -20 0 -11 18 -10 -18 -21 0 11 -18 -11 -18 -21 0 -10 18 -10 -18 -21 0c0,0 0,0 0,0l-11 18 11 18 -21 0 -10 18 10 18 21 0 -11 18 11 18 -21 0 -10 18 -11 -18 -20 0 -11 18 11 18 -21 0 -10 17 10 18 21 0 -11 18 11 18 20 0 11 -18 10 18 21 0 -11 18 11 18 -21 0 -10 18 10 18 21 0 -11 18 11 18 -21 0 -10 18 -11 -18 -20 0 -11 18 11 18 -21 0 -10 18 -11 -18 -20 0 10 -18 -10 -18 -21 0 -11 18 -10 -18 -21 0 -10 18 10 18 -20 0 -11 18 11 17 20 0 -10 18 10 18 -20 0 -11 18 -10 -18 -21 0 -10 18 10 18 -20 0 -11 18 -10 -18 -21 0 11 -18 -11 -18 -20 0 -11 18 -10 -18 -21 0 10 -18 -10 -18 21 0 10 -17 -10 -18 -21 0 10 -18 -10 -18 -21 0 -10 18 -10 -18 -21 0 -10 18 10 18 -21 0 -10 18 -10 -18 -21 0 10 -18 -10 -18 -21 0 -10 18 -10 -18 -21 0 10 -18 -10 -18 21 0 10 -18 -10 -18 -21 0 10 -18 -10 -18 21 0 10 -18 10 18 21 0 10 -18 -10 -18 21 0 10 -18 -10 -18 -21 0 10 -17 -10 -18 -21 0 -10 18 -10 -18 -21 0 10 -18 -10 -18 21 0 10 -18 -10 -18 -21 0 10 -18 -10 -18 -21 0 -10 18 -11 -18 -20 0 -11 18 11 18 -21 0 -10 18 -11 -18 -20 0 10 -18 -10 -18 -21 0 -10 18 -11 -18 -20 0 -11 18 11 18 -21 0 -11 18 11 18 21 0 -11 18 11 18 -21 0 -11 18 -10 -18 -21 0 -10 18 10 17 -20 0 -11 18 -10 -18 -21 0 11 -17 -11 -18 -20 0 -11 18 -10 -18 -21 0 11 -18 -11 -18 21 0 10 -18 -10 -18 -21 0 11 -18 -11 -18 -20 0 -11 18 -10 -18 -21 0 -10 18 10 18 -21 0 -10 18 -10 -18 -21 0 10 -18 -10 -18 -21 0 -10 18 -10 -18 -21 0c0,0 0,0 0,1l-11 18 11 18 -21 0 -10 17 10 18 21 0 -11 18 11 18 -21 0 -10 18 -11 -18 -21 0 -10 18 10 18 -20 0 -11 18 11 18 20 0 -10 18 10 18 21 0 11 -18 10 18 21 0 -11 18 11 18 -21 0 -10 18 10 18 21 0 -11 17 11 18 -21 0 -10 18 -11 -18 -21 0 -10 18 10 18 -20 0 -11 18 -10 -18 -21 0 11 -18 -11 -18 -20 0 -11 18 -10 -18 -21 0 -10 18 10 18 -20 0 -11 18 11 18 20 0 -10 18 10 18 -20 0 -11 18 -10 -18 -21 0 -10 18 10 18 -21 0 -10 18 10 18 21 0 -10 18 10 17 21 0 10 -17 11 17 20 0 -10 18 10 18 -20 0 -11 18 11 18 20 0 -10 18 10 18 21 0 10 -18 11 18 20 0 11 -18 -11 -18 21 0 10 -18 11 18 21 0 -11 18 11 18 20 0 11 -18 10 18 21 0 -11 18 11 18 -21 0 -10 18 10 18 21 0 -11 18 11 18 -21 0 -10 18 -11 -18 -20 0 -11 18 11 17 -21 0 -11 18 11 18 21 0 -11 18 11 18 20 0 11 -18 10 18 21 0 -11 18 11 18 -21 0 -10 18 10 18 21 0 -11 18 11 18 -21 0 -10 18 -11 -18 -20 0 -11 18 11 18 -21 0 -11 18 -10 -18 -21 0 11 -18 -11 -18 -20 0 -11 18 -10 -18 -21 0 -10 18 10 18 -20 0 -11 18 11 17 20 0 -10 18 10 18 -20 0 -11 18 -10 -18 -21 0 -10 18 10 18 -20 0 -11 18 -10 -18 -21 0 10 -18 -10 -18 -21 0 -10 18 -10 -18 -21 0 10 -18 -10 -18 21 0 10 -17 -10 -18 -21 0 10 -18 -10 -18 -21 0 -10 18 -10 -18 -21 0 -10 18 10 18 -21 0 -10 18 -10 -18 -21 0 10 -18 -10 -18 -21 0 -10 18 -11 -18 -20 0c0,0 -1,0 -1,0l-10 18 10 18 -20 0 -11 18 11 17 20 0 -10 18 10 18 -20 0 -11 18 -10 -18 -21 0 -10 18 10 18 -20 0 -11 18 11 18 20 0 -10 18 10 18 21 0 10 -18 11 18 20 0 -10 18 10 18 -20 0 -11 18 11 18 20 0 -10 18 10 17 -20 0 -11 18 -10 -18 -21 0 -10 18 10 18 -20 0 -11 18 -10 -18 -21 0 10 -18 -10 -18 -21 0 -10 18 -10 -18 -21 0 -10 18 10 18 -21 0 -10 18 10 18 21 0 -10 18 10 18 -21 0 -10 18 -10 -18 -21 0 -10 18 10 18 -21 0 -10 18 -10 -18 -21 0 10 -18 -10 -18 -21 0 -10 18 -11 -18 -20 0 10 -18 -10 -18 20 0 11 -18 -11 -18 -20 0 10 -18 -10 -18 -21 0 -10 18 -11 -18 -20 0 -11 18 11 18 -21 0 -10 18 -11 -18 -20 0 10 -18 -10 -18 -21 0 -11 18 -10 -18 -21 0 11 -17 -11 -18 21 0 10 -18 -10 -18 -21 0 11 -18 -11 -18 21 0 10 -18 11 18 21 0 10 -18 -10 -18 20 0 11 -18 -11 -18 -20 0 10 -18 -10 -18 -21 0 -11 18 -10 -18 -21 0 11 -18 -11 -18 21 0 10 -17 -10 -18 -21 0 11 -18 -11 -18c0,0 0,-1 0,-1l-20 0 -11 18 -10 -18 -21 0 -10 18 10 18 -21 0 -10 18 -10 -18 -21 0 10 -18 -10 -18 -21 0 -10 18 -10 -18 -21 0 -10 18 10 18 -21 0 -10 18 10 18 21 0 -10 18 10 18 -21 0 -10 18 -10 -18 -21 0 -11 18 11 18 -21 0 -10 18 -11 -18 -20 0 10 -18 -10 -18 -21 0 -10 18 -11 -18 -20 0 10 -18 -10 -18 20 0 11 -18 -11 -18 -20 0 10 -18 -10 -18 -21 0 -10 18 -11 -18 -20 0 -11 18 11 18 -21 0 -11 18 -10 -18 -21 0 11 -18 -11 -18 -20 0 -11 18 -10 -18 -21 0 11 -17 -11 -18 21 0 10 -18 -10 -18 -21 0 11 -18 -11 -18 21 0 10 -18 11 18 20 0 11 -18 -11 -18 21 0 10 -18 -10 -18 -21 0 11 -18 -11 -18 -20 0 -11 18 -10 -18 -21 0 11 -18 -11 -18 21 0 10 -17 -10 -18 -21 0 11 -18 -11 -18 21 0 10 -18 11 18 20 0 11 -18 -11 -18 21 0 10 -18 11 18 21 0 -11 18 11 18 20 0 11 -18 10 18 21 0 10 -18 -10 -18 20 0 11 -18 -11 -18 -20 0 10 -18 -10 -18 20 0 11 -18 10 18 21 0 10 -18 -10 -18 20 0 11 -18 -11 -18 -20 0 10 -17 -10 -18 -21 0 -10 18 -11 -18 -20 0 10 -18 -10 -18 20 0 11 -18 -11 -18 -20 0 10 -18 -10 -18 -21 0 -10 18 -11 -18 -20 0 -11 18 11 18 -21 0 -11 18 -10 -18 -21 0 11 -18 -11 -18 -20 0 -11 18 -10 -18 -21 0 11 -18 -11 -18 21 0 10 -18 -10 -18 -21 0 11 -18 -11 -18 21 1 10 -18 11 18 20 0 11 -18 -11 -18 21 0 10 -18 -10 -18 -21 0 11 -18 -11 -18 -20 0 -11 18 -10 -18 -21 0 11 -18 -11 -18 21 0 10 -18 -10 -18 -21 0 11 -18 -11 -18c0,0 0,0 0,0l-21 0 -10 18 -10 -18 -21 0 -11 18 11 18 -21 0 -10 18 -11 -18 -20 0 10 -18 -10 -18 -21 0 -10 18 -11 -18 -20 0 -11 18 11 18 -21 0 -10 18 10 18 21 0 -11 18 11 18 -21 0 -10 18 -11 -18 -20 0 -11 18 11 18 -21 0 -11 17 -10 -17 -21 0 11 -18 -11 -18 -20 0 -11 18 -10 -18 -21 0 11 -18 -11 -18 21 0 10 -18 -10 -18 -21 0 11 -18 -11 -18 -20 0 -11 18 -10 -18 -21 0 -10 18 10 18 -20 0 -11 18 -10 -18 -21 0 10 -18 -10 -18 -21 0 -10 18 -10 -18 -21 0 -10 18 10 18 -21 0 -10 18 10 18 21 0 -10 18 10 18 -21 0 -10 18 -10 -18 -21 0 -10 18 10 18 -21 0 -10 17 10 18 21 0 -10 18 10 18 21 0 10 -18 10 18 21 0 -10 18 10 18 -21 0 -10 18 10 18 21 0 -10 18 10 18 -21 0 -10 18 -10 -18 -21 0 -10 18 10 18 -21 0 -10 18 -10 -18 -21 0 10 -18 -10 -18 -21 0 -10 18 -11 -18 -20 0 -11 18 11 18 -21 0 -10 18 10 18 21 0 -11 17 11 18 -21 0 -10 18 -11 -18 -20 0 -11 18 11 18 -21 0 -10 18 -11 -18 -20 0 10 -18 -10 -18 -21 0 -11 18 -10 -18 -21 0 11 -18 -11 -17 21 0 10 -18 -10 -18 -21 0 11 -18 -11 -18 -20 0 -11 18 -10 -18 -21 0 -10 18 10 18 -20 0 -11 18 -10 -18 -21 0 11 -18 -11 -18 -21 0 -10 18 -10 -18 -21 0 10 -18 -10 -18 21 0 10 -18 -10 -18 -21 0 10 -18 -10 -18 21 0 10 -18 10 18 21 0 11 -18 -11 -18 21 0 10 -18 -10 -17 -21 0 11 -18 -11 -18 -21 0 -10 18 -10 -18 -21 0 10 -18 -10 -18 21 0 10 -18 -10 -18 -21 0 10 -18 -10 -18c0,0 0,0 0,0l-21 0 -10 18 -11 -18 -20 0 -11 18 11 18 -21 0 -10 18 -11 -18 -20 0 10 -18 -10 -18 -21 0 -11 18 -10 -18 -21 0 -10 18 10 18 -20 0 -11 18 11 18 20 0 -10 18 10 18 -20 0 -11 18 -10 -18 -21 0 -10 18 10 18 -20 0 -11 17 -10 -17 -21 0 11 -18 -11 -18 -20 0 -11 18 -10 -18 -21 0 10 -18 -10 -18 21 0 10 -18 -10 -18 -21 0 10 -18 -10 -18 -21 0 -10 18 -10 -18 -21 0 -10 18 10 18 -21 0 -10 18 -10 -18 -21 0 10 -18 -10 -18 -21 0 -10 18 -10 -18 -21 0 10 -18 -10 -18 21 0 10 -18 -10 -18 -21 0 10 -18 -10 -17 21 0 10 -18 10 18 21 0 10 -18 -10 -18 21 0 10 -18 -10 -18 -21 0 10 -18 -10 -18 -21 0 -10 18 -10 -18 -21 0 10 -18 -10 -18 21 0 10 -18 -10 -18 -21 0 10 -18 -10 -18 21 0 10 -18 10 18 21 0 10 -18 -10 -17 21 0 10 -18 10 18 21 0 -10 17 10 18 21 0 10 -18 10 18 21 0 10 -18 -10 -17 21 0 10 -18 -10 -18 -21 0 10 -18 -10 -18 21 0 10 -18 11 18 20 0 11 -18 -11 -18 21 0 10 -18c0,0 0,0 0,0l-10 -18 -21 0 10 -18 -10 -18 -21 0 -10 18 -10 -18 -21 0 10 -18 -10 -18 21 0 10 -18 -10 -18 -21 0 10 -18 -10 -18 -21 0 -10 18 -10 -18 -21 0 -11 18 11 18 -21 0 -10 18 -11 -18 -20 0 10 -18 -10 -18 -21 0 -10 18 -11 -18 -20 0 10 -18 -10 -17 20 0 11 -18 -11 -18 -20 0 10 -18 -10 -18 20 0 11 -18 10 18 21 0 10 -18 -10 -18 20 0 11 -18 -11 -18 -20 0 10 -18 -10 -18 -21 0 -10 18 -11 -18 -20 0 10 -18 -10 -18 20 0 11 -17 -11 -18 -20 0 10 -18 -10 -18 20 0 11 -18 10 18 21 0 10 -18 -10 -18 20 0 11 -18 10 18 21 0 -10 18 10 18 21 0 10 -18 10 18 21 0 10 -18 -10 -18 21 0 10 -18 -10 -18 -21 0 10 -18 -10 -18 21 0 10 -18 10 18 21 0 10 -18 -10 -18 21 0 10 -18 10 18 21 0 -10 18 10 18 21 0 10 -18 11 18 20 0 -10 18 10 18 -20 0 -11 18 11 18 20 0 -10 18 10 18 21 0 10 -18 11 18 20 0 11 -18 -11 -18 21 0 10 -18 11 18 20 0 -10 18 10 18 21 0 11 -18 10 18 21 0 10 -18 -10 -18 20 0 11 -18 -11 -18 -20 0 10 -18 -10 -18 20 0 11 -18 10 18 21 0 10 -18 -10 -18 20 0 11 -18 -11 -18 -20 0 10 -17 -10 -18 -21 0 -10 18 -11 -18 -20 0 10 -18 -10 -18 20 0 11 -18 -11 -18 -20 0 10 -18 -10 -18 20 0 11 -18 10 18 21 0 10 -18 -10 -18 20 0 11 -18 10 18 21 0 -11 18 11 18 20 0 11 -18 10 18 21 0 10 -18 -10 -18 21 0 10 -18 -10 -18 -21 0 10 -18 -10 -18 21 0 10 -17 10 17 21 0 10 -17 -10 -18 21 0 10 -18c0,-1 0,-1 0,-1l-10 -18 -21 0 10 -18 -10 -18 -21 0 -10 18 -10 -18 -21 0 10 -18 -10 -18 21 0 10 -18 -10 -18 -21 0 10 -17 -10 -18 -21 0 -10 18 -10 -18 -21 0 -10 18 10 17 -21 0 -10 18 -10 -18 -21 0 10 -17 -10 -18 -21 0 -10 18 -11 -18 -20 0 10 -18 -10 -18 20 0 11 -18 -11 -18 -20 0 10 -18 -10 -18 20 0 11 -18 10 18 21 0 10 -18 -10 -18 21 0 10 -18 -10 -18 -21 0 10 -18 -10 -17 -21 0 -10 17 -11 -17 -20 0 10 -18 -10 -18 20 0 11 -18 -11 -18 -20 0 10 -18 -10 -18 -21 0 -10 18 -11 -18 -20 0 -11 18 11 18 -21 0 -10 18 -11 -18 -20 0 10 -18 -10 -18 -21 0 -11 18 -10 -18 -21 0 -10 18 10 18 -20 0 -11 18 11 18 20 0 -10 18 10 18 -20 0 -11 17 -10 -17 -21 0 -10 17 10 18 -20 0 -11 18 -10 -18 -21 0 11 -18 -11 -17 -20 0 -11 17 -10 -17 -21 0 10 -18 -10 -18 21 0 10 -18 -10 -18 -21 0 10 -18 -10 -18 -21 0 -10 18 -10 -18 -21 0 -10 18 10 18 -21 0 -10 18 -10 -18 -21 0 10 -18 -10 -18 -21 0 -10 18 -11 -18 -20 0 10 -18 -10 -18 20 0 11 -18 -11 -18 -20 0 10 -18 -10 -18 20 0 11 -18 10 18 21 0 10 -18 -10 -17 21 0 10 -18 -10 -18 -21 0 10 -18 -10 -18 -21 0 -10 18 -11 -18 -20 0 10 -18 -10 -18 20 0 11 -18 -11 -18 -20 0 10 -18 -10 -18 20 0 11 -18 10 18 21 0 10 -18 -10 -18 21 0 10 -18 10 18 21 0 -10 18 10 18 21 0 10 -18 10 18 21 0 10 -18 -10 -18 21 0 10 -18 -10 -17 -21 0 10 -18 -10 -18 21 0 10 -18 10 18 21 0 11 -18 -11 -18 21 0 10 -18c0,0 0,0 0,0l-10 -18 -21 0 10 -18 -10 -18 -21 0 -10 18 -10 -18 -21 0 10 -18 -10 -18 21 0 10 -18 -10 -18 -21 0 10 -18 -10 -18 -21 0 -10 18 -10 -18 -21 0 -11 18 11 18 -21 0 -10 18 -11 -18 -20 0 10 -18 -10 -18 -21 0 -10 18 -11 -18 -20 0 10 -18 -10 -18 20 0 11 -18 -11 -17 -20 0 10 -18 -10 -18 20 0 11 -18 10 18 21 0 10 -18 -10 -18 20 0 11 -18 -11 -18 -20 0 10 -18 -10 -18 -21 0 -10 18 -11 -18 -20 0 10 -18 -10 -18 20 0 11 -18 -11 -18 -20 0 10 -17 -10 -18 20 0 11 -18 10 18 21 0 10 -18 -10 -18 20 0 11 -18 10 18 21 0 -11 18 11 18 21 0 10 -18 10 18 21 0 10 -18 -10 -18 21 0 10 -18 -10 -18 -21 0 10 -18 -10 -18 21 0 10 -18 10 18 21 0 10 -18 -10 -18 21 0 10 -18 10 18 21 0 -10 18 10 18 21 0 10 -18 11 18 20 0 -10 18 10 18 -20 0 -11 18 11 18 20 0 -10 18 10 18 21 0 10 -18 11 18 20 0 11 -18 -11 -18 21 0 10 -18 11 18 20 0 -10 18 10 18 21 0 10 -18 11 18 21 0c0,0 0,-1 0,-1l10 -18 -10 -18 20 0 11 -18 -11 -17 -20 0 10 -18 -10 -18 20 0 11 -18 10 18 21 0 10 -18 -10 -18 21 0 10 -18 -10 -18 -21 0 10 -18 -10 -18 -21 0 -10 18 -11 -18 -20 0 10 -18 -10 -18 20 0 11 -18 -11 -18 -20 0 10 -17 -10 -18 20 0 11 -18 10 18 21 0 10 -18 -10 -18 21 0 10 -18 10 18 21 0 -10 18 10 18 21 0 10 -18 10 18 21 0 10 -18 -10 -18 21 0 10 -18 -10 -18 -21 0 10 -18 -10 -18 21 0 10 -18 10 18 21 0 10 -18 -10 -18 21 0 10 -18 11 18 20 0 -10 18 10 18 21 0 10 -18 11 18 20 0 -10 18 10 18 -20 0 -11 18 11 18 20 0 -10 18 10 18 21 0 10 -18 11 18 20 0 11 -18 -11 -18 21 0 10 -18 11 18 21 0 -11 18 11 18 20 0 11 -18 10 18 21 0 -11 18 11 17 -21 0 -10 18 10 18 21 0 -11 18 11 18 -21 0 -10 18 -11 -18 -20 0 -11 18 11 18 -21 0 -11 18 11 18 21 0 -11 18 11 18 20 0 11 -18 10 18 21 0 -11 18 11 18 -21 0 -10 18 10 17 21 0 -11 18 11 18 20 0 11 -18 10 18 21 0 10 -18 -10 -18 20 0 11 -17 10 17 21 0 -11 18 11 18 21 0 10 -18 10 18 21 0 10 -18 -10 -18 21 0 10 -17 -10 -18 -21 0 10 -18 -10 -18 21 0 10 -18 10 18 21 0 10 -18 -10 -18 21 0 10 -18 10 18 21 0 -10 18 10 18 21 0 10 -18 11 18 20 0 -10 18 10 18 -20 0 -11 18 11 17 20 0 -10 18 10 18 21 0 10 -18 11 18 20 0 11 -18 -11 -18 21 0 10 -17 11 17 20 0 -10 18 10 18 21 0 10 -18 11 18 21 0c0,0 0,1 0,0z"/> <polygon class="fil0" points="4205,2034 5043,3486 5881,4938 4205,4938 2528,4938 851,4938 1690,3486 2528,2034 3366,582 "/> </g> </svg>